<svg xmlns="http://www.w3.org/2000/svg" width="26" height="28" viewBox="0 0 26 28"><path d="M13 8q0-1.25-.875-2.125T10 5t-2.125.875T7 8q0 .656.297 1.297Q6.656 9 6 9q-1.25 0-2.125.875T3 12t.875 2.125T6 15t2.125-.875T9 12q0-.656-.297-1.297Q9.344 11 10 11q1.25 0 2.125-.875T13 8zm13.297 11q0 .266-.766 1.031t-1.031.766q-.141 0-.445-.25t-.57-.516-.602-.625T22.5 19L21 20.5l3.437 3.437q.438.438.438 1.062 0 .656-.609 1.266T23 26.874q-.625 0-1.062-.438L11.454 15.952q-2.75 2.047-5.703 2.047-2.547 0-4.148-1.602T.001 12.249q0-2.5 1.484-4.891T5.36 3.483t4.891-1.484q2.547 0 4.148 1.602t1.602 4.148q0 2.953-2.047 5.703l5.547 5.547 1.5-1.5q-.047-.047-.406-.383t-.625-.602-.516-.57-.25-.445q0-.266.766-1.031t1.031-.766q.203 0 .359.156.094.094.719.695t1.281 1.242 1.352 1.344 1.141 1.219.445.641z"/></svg>