<svg xmlns="http://www.w3.org/2000/svg" width="28" height="28" viewBox="0 0 28 28"><path d="M4 20.5v3q0 .203-.148.352T3.5 24h-3q-.203 0-.352-.148T0 23.5v-3q0-.203.148-.352T.5 20h3q.203 0 .352.148T4 20.5zm0-6v3q0 .203-.148.352T3.5 18h-3q-.203 0-.352-.148T0 17.5v-3q0-.203.148-.352T.5 14h3q.203 0 .352.148T4 14.5zm0-6v3q0 .203-.148.352T3.5 12h-3q-.203 0-.352-.148T0 11.5v-3q0-.203.148-.352T.5 8h3q.203 0 .352.148T4 8.5zm24 12v3q0 .203-.148.352T27.5 24h-21q-.203 0-.352-.148T6 23.5v-3q0-.203.148-.352T6.5 20h21q.203 0 .352.148T28 20.5zM4 2.5v3q0 .203-.148.352T3.5 6h-3q-.203 0-.352-.148T0 5.5v-3q0-.203.148-.352T.5 2h3q.203 0 .352.148T4 2.5zm24 12v3q0 .203-.148.352T27.5 18h-21q-.203 0-.352-.148T6 17.5v-3q0-.203.148-.352T6.5 14h21q.203 0 .352.148T28 14.5zm0-6v3q0 .203-.148.352T27.5 12h-21q-.203 0-.352-.148T6 11.5v-3q0-.203.148-.352T6.5 8h21q.203 0 .352.148T28 8.5zm0-6v3q0 .203-.148.352T27.5 6h-21q-.203 0-.352-.148T6 5.5v-3q0-.203.148-.352T6.5 2h21q.203 0 .352.148T28 2.5z"/></svg>