<svg xmlns="http://www.w3.org/2000/svg" width="28" height="28" viewBox="0 0 28 28"><path d="M8 0q.203 0 .352.148T8.5.5v23q0 .313-.266.438l-7.5 4q-.109.063-.234.063-.203 0-.352-.148T0 27.501v-23q0-.313.266-.438l7.5-4Q7.875 0 8 0zm19.5 0q.203 0 .352.148T28 .5v23q0 .313-.266.438l-7.5 4q-.109.063-.234.063-.203 0-.352-.148t-.148-.352v-23q0-.313.266-.438l7.5-4Q27.375 0 27.5 0zM10 0q.125 0 .219.047l8 4q.281.156.281.453v23q0 .203-.148.352T18 28q-.125 0-.219-.047l-8-4Q9.5 23.797 9.5 23.5V.5q0-.203.148-.352T10 0z"/></svg>