<svg xmlns="http://www.w3.org/2000/svg" width="24.709" height="24.71" viewBox="0 0 24.709 24.71"><path d="M12.354 0C5.531 0 0 5.532 0 12.355 0 19.179 5.531 24.71 12.354 24.71c6.824 0 12.355-5.531 12.355-12.355C24.709 5.532 19.178 0 12.354 0zm4.188 6.228a2.632 2.632 0 1 1 0 5.265 2.632 2.632 0 0 1 0-5.265zm-8.373 0a2.634 2.634 0 1 1 0 5.268 2.634 2.634 0 0 1 0-5.268zm4.186 14.474c-4.217 0-7.635-1.505-7.635-3.361 0-.38.149-.743.412-1.084.402 1.588 3.444 2.822 7.14 2.822 3.824 0 6.942-1.322 7.166-2.989.353.387.552.809.552 1.251 0 1.856-3.418 3.361-7.635 3.361z"/></svg>